<?xml version="1.0" encoding="UTF-8"?>
<svg xmlns="http://www.w3.org/2000/svg" xmlns:xlink="http://www.w3.org/1999/xlink" version="1.1" id="Capa_1" x="0px" y="0px" viewBox="0 0 512 512" style="enable-background:new 0 0 512 512;" xml:space="preserve" width="512" height="512">
<g>
	<g>
		<path style="fill:#73DA8C;" d="M437.552,257.14v43.77c0,29.05-23.55,52.59-52.59,52.59h-148.16&#10;&#9;&#9;&#9;c-13.85-31.17-23.04-63.67-27.84-96.36H437.552z"/>
		<path style="fill:#29CE69;" d="M236.802,353.5h-109.76c-29.05,0-52.6-23.54-52.6-52.59v-43.77h134.52&#10;&#9;&#9;&#9;C213.762,289.83,222.952,322.33,236.802,353.5z"/>
		<circle style="fill:#FFCBBE;" cx="419.766" cy="227.428" r="39.74"/>
		<circle style="fill:#FFCBBE;" cx="92.234" cy="227.428" r="39.74"/>
		<path style="fill:#F8EA69;" d="M367.872,504.5h-6.34c-64.34-23.509-96.578-62.006-99.24-103.51h81.27&#10;&#9;&#9;&#9;c23.14,19.59,39.62,46.8,45.57,77.76C391.702,492.11,381.472,504.5,367.872,504.5z"/>
		<path style="fill:#F6CA56;" d="M361.532,504.5h-217.4c-13.6,0-23.84-12.39-21.27-25.75c5.96-30.96,22.44-58.17,45.58-77.76h93.85&#10;&#9;&#9;&#9;C286.912,439.63,319.792,474.98,361.532,504.5z"/>
		<path style="fill:#73DA8C;" d="M343.562,400.99c-5.35,22.83-19.4,42.31-38.46,54.76c-34.652-15.953-57.695-46.255-54.28-74.07&#10;&#9;&#9;&#9;h62.65C324.372,386.78,334.472,393.3,343.562,400.99z"/>
		<path style="fill:#29CE69;" d="M305.102,455.75c-14.12,9.22-30.98,14.58-49.1,14.58c-42.58,0-78.25-29.6-87.56-69.34&#10;&#9;&#9;&#9;c9.08-7.69,19.19-14.21,30.09-19.31h52.29C265.302,407.87,283.332,432.8,305.102,455.75z"/>
		<path style="fill:#FFCBBE;" d="M312.882,381.68c-0.46,21.04-12.35,39.27-29.7,48.73c-24.813-11.695-36.894-29.541-32.36-48.73&#10;&#9;&#9;&#9;H312.882z"/>
		<path style="fill:#FFB39D;" d="M283.182,430.41c-8.07,4.4-17.33,6.9-27.18,6.9c-31.01,0-56.21-24.79-56.89-55.63h51.71&#10;&#9;&#9;&#9;C260.122,398.51,270.892,414.81,283.182,430.41z"/>
		<path style="fill:#FFDDCF;" d="M420.472,227.53c0,90.59-73.24,164.06-163.72,164.47c-91.004-92.03-85.411-240.582-25.09-327.14&#10;&#9;&#9;&#9;c7.94-1.19,16.07-1.8,24.34-1.8C346.832,63.06,420.472,136.7,420.472,227.53z"/>
		<path style="fill:#FFCBBE;" d="M256.752,392h-0.75c-90.84,0-164.47-73.63-164.47-164.47c0-82.56,60.83-150.92,140.13-162.67&#10;&#9;&#9;&#9;C190.672,164.39,195.252,288.93,256.752,392z"/>
		<path style="fill:#5972A5;" d="M124.807,139.103c-12.52,13.34-22.935,31.977-30.315,57.187c-10.09,3.14-20.42,4.13-31.41,4.13&#10;&#9;&#9;&#9;c0-10.61,0.86-21.02,2.5-31.16C65.582,169.26,88.203,134.551,124.807,139.103z"/>
		<path style="fill:#687DAA;" d="M318.302,124.05c-24.51,17.08-62.66,35.54-112.15,48.59c-9.083-20.998-6.398-45.831,10.24-61.72&#10;&#9;&#9;&#9;C251.232,107.01,290.032,110.41,318.302,124.05z"/>
		<path style="fill:#5972A5;" d="M216.392,110.92c-5.13,20.03-8.57,40.71-10.24,61.72c-18.598,4.912-38.793,9.066-60.468,12.088&#10;&#9;&#9;&#9;c-2.308,0.322-4.426-1.404-4.539-3.732c-0.831-17.096,3.213-35.411,7.658-48.837C164.272,121.53,189.122,113.98,216.392,110.92z"/>
		<path style="fill:#687DAA;" d="M448.912,200.42c-11.13,0-21.57-1.52-31.41-4.18c-7.38-25.19-17.61-43.51-30.15-56.84&#10;&#9;&#9;&#9;c41.513,0.639,59.06,29.9,59.06,29.9C448.062,179.43,448.912,189.82,448.912,200.42z"/>
		<ellipse style="fill:#FFA1AC;" cx="176.443" cy="263.305" rx="29.355" ry="23.377"/>
		<ellipse style="fill:#FFA1AC;" cx="335.557" cy="263.305" rx="29.355" ry="23.377"/>
		<path style="fill:#73DA8C;" d="M446.412,169.3c-50.05-37.69-125.35-48.7-190.41-49.22c-14.09,0.21-28.23,0.81-42.26,1.94&#10;&#9;&#9;&#9;c-10.185-48.234,15.319-98.571,48.5-114.42C355.382,10.56,431.852,79.55,446.412,169.3z"/>
		<path style="fill:#29CE69;" d="M262.242,7.6c-22.88,33.87-39.26,72.91-48.5,114.42c-54.26,4.4-106.86,16.93-148.16,47.24&#10;&#9;&#9;&#9;C80.482,77.53,160.062,7.5,256.002,7.5C258.092,7.5,260.172,7.53,262.242,7.6z"/>
		<path style="fill:#687DAA;" d="M318.044,85.207c0.461,2.647-1.725,5.02-4.393,4.7c-18.359-2.204-37.685-3.386-57.649-3.386&#10;&#9;&#9;&#9;c-11.14,0-22.08,0.37-32.76,1.08c-4.248-17.17,4.03-38.2,18.79-45.45c1.1-0.07,2.2-0.11,3.32-0.11h21.29&#10;&#9;&#9;&#9;C292.395,42.04,313.774,60.685,318.044,85.207z"/>
		<path style="fill:#5972A5;" d="M242.032,42.15c-7.32,14.54-13.6,29.74-18.79,45.45c-8.458,0.555-16.773,1.335-24.886,2.308&#10;&#9;&#9;&#9;c-2.636,0.316-4.861-2.005-4.41-4.621C197.998,61.791,217.763,43.669,242.032,42.15z"/>
	</g>
	<g id="_x32_6_Boy">
		<path style="fill:none;stroke:#000000;stroke-width:15;stroke-linecap:round;stroke-linejoin:round;stroke-miterlimit:10;" d="&#10;&#9;&#9;&#9;M128.296,458.873c-2.292,6.415-4.118,13.052-5.43,19.872c-2.569,13.357,7.662,25.755,21.264,25.755H367.87&#10;&#9;&#9;&#9;c13.602,0,23.833-12.397,21.264-25.755c-8.29-43.108-36.998-78.949-75.665-97.072"/>
		<path style="fill:none;stroke:#000000;stroke-width:15;stroke-linecap:round;stroke-linejoin:round;stroke-miterlimit:10;" d="&#10;&#9;&#9;&#9;M198.53,381.673c-21.936,10.282-40.662,26.27-54.278,46.049"/>
		<path style="fill:none;stroke:#000000;stroke-width:15;stroke-linecap:round;stroke-linejoin:round;stroke-miterlimit:10;" d="&#10;&#9;&#9;&#9;M168.441,400.989c9.312,39.742,44.978,69.337,87.559,69.337s78.248-29.595,87.559-69.337"/>
		<path style="fill:none;stroke:#000000;stroke-width:15;stroke-linecap:round;stroke-linejoin:round;stroke-miterlimit:10;" d="&#10;&#9;&#9;&#9;M415.702,266.96c23.233,2.502,43.947-16.143,43.804-39.534c0-10.432-4.025-19.92-10.6-27.009"/>
		<path style="fill:none;stroke:#000000;stroke-width:15;stroke-linecap:round;stroke-linejoin:round;stroke-miterlimit:10;" d="&#10;&#9;&#9;&#9;M63.094,200.416c-6.575,7.09-10.6,16.578-10.6,27.009c-0.144,23.391,20.572,42.036,43.804,39.534"/>
		<g>
			<path style="fill:none;stroke:#000000;stroke-width:15;stroke-linecap:round;stroke-linejoin:round;stroke-miterlimit:10;" d="&#10;&#9;&#9;&#9;&#9;M74.447,262.94v37.966c0,29.047,23.547,52.594,52.594,52.594h23.222"/>
			<path style="fill:none;stroke:#000000;stroke-width:15;stroke-linecap:round;stroke-linejoin:round;stroke-miterlimit:10;" d="&#10;&#9;&#9;&#9;&#9;M361.737,353.5h23.222c29.047,0,52.594-23.547,52.594-52.594V262.94"/>
		</g>
		
			<line style="fill:none;stroke:#000000;stroke-width:15;stroke-linecap:round;stroke-linejoin:round;stroke-miterlimit:10;" x1="193.551" y1="228.799" x2="193.551" y2="240.799"/>
		
			<line style="fill:none;stroke:#000000;stroke-width:15;stroke-linecap:round;stroke-linejoin:round;stroke-miterlimit:10;" x1="318.449" y1="228.799" x2="318.449" y2="240.799"/>
		<path style="fill:none;stroke:#000000;stroke-width:15;stroke-linecap:round;stroke-linejoin:round;stroke-miterlimit:10;" d="&#10;&#9;&#9;&#9;M239.536,240.442c4.003,4.594,9.892,7.501,16.464,7.501s12.461-2.907,16.464-7.501"/>
		<g>
			<path style="fill:none;stroke:#000000;stroke-width:15;stroke-linecap:round;stroke-linejoin:round;stroke-miterlimit:10;" d="&#10;&#9;&#9;&#9;&#9;M65.592,169.317c-1.641,10.125-2.508,20.511-2.508,31.1c10.986,0,21.321-0.992,31.41-4.129&#10;&#9;&#9;&#9;&#9;c7.381-25.205,17.629-43.541,30.152-56.88"/>
			<path style="fill:none;stroke:#000000;stroke-width:15;stroke-linecap:round;stroke-linejoin:round;stroke-miterlimit:10;" d="&#10;&#9;&#9;&#9;&#9;M148.702,132.46c-4.822,14.559-9.065,34.565-7.238,52.842c81.464-10.719,142.514-37.336,176.827-61.247"/>
			<path style="fill:none;stroke:#000000;stroke-width:15;stroke-linecap:round;stroke-linejoin:round;stroke-miterlimit:10;" d="&#10;&#9;&#9;&#9;&#9;M387.351,139.407c12.531,13.323,22.768,31.637,30.147,56.831c9.849,2.659,20.283,4.179,31.419,4.179&#10;&#9;&#9;&#9;&#9;c0-10.589-0.867-20.974-2.508-31.1"/>
		</g>
		<path style="fill:none;stroke:#000000;stroke-width:15;stroke-linecap:round;stroke-linejoin:round;stroke-miterlimit:10;" d="&#10;&#9;&#9;&#9;M266.646,42.035h-21.292c-27.582,0-50.152,21.401-52.046,48.502c19.85-2.611,40.89-4.024,62.692-4.024&#10;&#9;&#9;&#9;c21.802,0,42.842,1.413,62.692,4.024C316.798,63.436,294.229,42.035,266.646,42.035z"/>
		<path style="fill:none;stroke:#000000;stroke-width:15;stroke-linecap:round;stroke-linejoin:round;stroke-miterlimit:10;" d="&#10;&#9;&#9;&#9;M361.026,38.579C330.805,18.924,294.739,7.5,256,7.5c-95.956,0-175.535,70.061-190.408,161.817&#10;&#9;&#9;&#9;c36.878-29.342,108.317-49.235,190.408-49.235s153.531,19.894,190.408,49.235c-6.917-42.676-27.838-80.654-57.888-109.077"/>
		<path style="fill:none;stroke:#000000;stroke-width:15;stroke-linecap:round;stroke-linejoin:round;stroke-miterlimit:10;" d="&#10;&#9;&#9;&#9;M94.526,196.18c-1.959,10.15-2.997,20.628-2.997,31.351c0,90.835,73.636,164.471,164.471,164.471s164.471-73.636,164.471-164.471&#10;&#9;&#9;&#9;c0-10.742-1.042-21.238-3.008-31.406"/>
		<path style="fill:none;stroke:#000000;stroke-width:15;stroke-linecap:round;stroke-linejoin:round;stroke-miterlimit:10;" d="&#10;&#9;&#9;&#9;M199.125,381.899c0.801,30.737,25.945,55.413,56.875,55.413s56.074-24.677,56.875-55.413"/>
	</g>
</g>















</svg>
